HIERARCHY
ROOT joint_Root
{
	OFFSET 0.0 0.0 0.0
	CHANNELS 6 Xposition Yposition Zposition Zrotation Xrotation Yrotation 
	JOINT Hips
	{
		OFFSET 4.5925 91.4895 -427.239
		CHANNELS 6 Xposition Yposition Zposition Zrotation Xrotation Yrotation 
		JOINT Spine
		{
			OFFSET 15.7357 0.0 0.0
			CHANNELS 6 Xposition Yposition Zposition Zrotation Xrotation Yrotation 
			JOINT Chest
			{
				OFFSET 8.98455 -0.406207 0.0
				CHANNELS 6 Xposition Yposition Zposition Zrotation Xrotation Yrotation 
				JOINT Neck
				{
					OFFSET 16.3773 0.0 0.0
					CHANNELS 6 Xposition Yposition Zposition Zrotation Xrotation Yrotation 
					JOINT Head
					{
						OFFSET 6.45672 0.0 0.0
						CHANNELS 6 Xposition Yposition Zposition Zrotation Xrotation Yrotation 
						End Site
						{
							OFFSET 0.0 0.0 0.0
						}
					}
				}
				JOINT Shoulder_L
				{
					OFFSET 12.9942 -0.242716 4.98039
					CHANNELS 6 Xposition Yposition Zposition Zrotation Xrotation Yrotation 
					JOINT UpperArm_L
					{
						OFFSET 5.34809 0.0 0.0
						CHANNELS 6 Xposition Yposition Zposition Zrotation Xrotation Yrotation 
						JOINT LowerArm_L
						{
							OFFSET 24.3286 1.87007e-05 0.0
							CHANNELS 6 Xposition Yposition Zposition Zrotation Xrotation Yrotation 
							JOINT Hand_L
							{
								OFFSET 22.2916 0.0 0.0
								CHANNELS 6 Xposition Yposition Zposition Zrotation Xrotation Yrotation 
								End Site
								{
									OFFSET 0.0 0.0 0.0
								}
							}
						}
					}
				}
				JOINT Shoulder_R
				{
					OFFSET 12.9945 -0.242716 -4.98039
					CHANNELS 6 Xposition Yposition Zposition Zrotation Xrotation Yrotation 
					JOINT UpperArm_R
					{
						OFFSET -5.34813 0.0 0.0
						CHANNELS 6 Xposition Yposition Zposition Zrotation Xrotation Yrotation 
						JOINT LowerArm_R
						{
							OFFSET -24.3289 0.000322201 0.0
							CHANNELS 6 Xposition Yposition Zposition Zrotation Xrotation Yrotation 
							JOINT Hand_R
							{
								OFFSET -22.2915 -0.000108084 0.0
								CHANNELS 6 Xposition Yposition Zposition Zrotation Xrotation Yrotation 
								End Site
								{
									OFFSET 0.0 0.0 0.0
								}
							}
						}
					}
				}
			}
		}
		JOINT UpperLeg_L
		{
			OFFSET -2.19248 -6.46944 0.0
			CHANNELS 6 Xposition Yposition Zposition Zrotation Xrotation Yrotation 
			JOINT LowerLeg_L
			{
				OFFSET 39.0811 0.0 -1.23785e-05
				CHANNELS 6 Xposition Yposition Zposition Zrotation Xrotation Yrotation 
				JOINT Foot_L
				{
					OFFSET 40.9854 0.0 -1.26872e-05
					CHANNELS 6 Xposition Yposition Zposition Zrotation Xrotation Yrotation 
					JOINT Toes_L
					{
						OFFSET 11.7543 0.0 0.0
						CHANNELS 6 Xposition Yposition Zposition Zrotation Xrotation Yrotation 
						End Site
						{
							OFFSET 0.0 0.0 0.0
						}
					}
				}
			}
		}
		JOINT UpperLeg_R
		{
			OFFSET -2.19251 6.46944 0.0
			CHANNELS 6 Xposition Yposition Zposition Zrotation Xrotation Yrotation 
			JOINT LowerLeg_R
			{
				OFFSET -39.0811 -0.00228153 -0.0401928
				CHANNELS 6 Xposition Yposition Zposition Zrotation Xrotation Yrotation 
				JOINT Foot_R
				{
					OFFSET -40.9854 0.0 0.0
					CHANNELS 6 Xposition Yposition Zposition Zrotation Xrotation Yrotation 
					JOINT Toes_R
					{
						OFFSET -11.7543 0.0 0.0
						CHANNELS 6 Xposition Yposition Zposition Zrotation Xrotation Yrotation 
						End Site
						{
							OFFSET 0.0 0.0 0.0
						}
					}
				}
			}
		}
	}
}
MOTION
Frames:	6
Frame Time:	0.0333333
0.000000 0.000000 0.000000 0.000000 0.000000 -0.000000 0.982026 90.524800 3.091240 89.738400 -5.347430 10.099600 15.735700 0.000005 -0.000001 86.487200 82.193200 -86.774600 8.984550 -0.406207 -0.000000 7.816690 -0.952857 -0.509155 16.377300 -0.000001 -0.000001 8.078920 -4.486460 2.467370 6.456720 -0.000001 -0.000000 0.642697 -4.485800 3.235250 12.994200 -0.242716 4.980390 -91.550600 5.782970 -74.962400 5.348090 -0.000007 -0.000001 -60.320600 38.457800 -19.402300 24.328600 0.000019 0.000005 8.101630 22.865500 -20.119900 22.291600 -0.000001 0.000005 5.828210 5.256120 1.270490 12.994500 -0.242716 -4.980390 88.422600 11.450900 -82.103100 -5.348130 -0.000001 -0.000004 -61.845600 35.177400 -12.980400 -24.328900 0.000322 -0.000009 1.396030 3.924280 -19.614000 -22.291500 -0.000108 -0.000004 11.315700 5.360550 -1.696490 -2.192480 -6.469440 -0.000000 -175.162000 -14.358400 3.071740 39.081100 -0.000007 -0.000012 -0.183200 0.315360 30.153600 40.985400 -0.000006 -0.000013 0.721658 4.084760 -72.812600 11.754300 -0.000000 0.000003 -0.000240 -0.002156 -16.658400 -2.192510 6.469440 -0.000001 171.547000 20.120300 -176.123000 -39.081100 -0.002282 -0.040193 -0.245468 0.437216 29.639700 -40.985400 0.000008 0.000006 2.185360 14.948600 -72.394000 -11.754300 -0.000006 -0.000006 -0.002024 -0.029015 -17.753000
0.000000 0.000000 0.000000 0.000000 0.000000 -0.000000 1.009780 90.542900 3.042630 89.732500 -5.346750 10.106700 15.735700 0.000005 -0.000001 86.787400 82.239200 -87.082300 8.984550 -0.406207 -0.000000 7.729620 -0.866233 -0.530654 16.377300 -0.000001 -0.000001 8.513640 -4.468640 2.480350 6.456720 -0.000001 -0.000000 1.387940 -4.415820 3.085530 12.994200 -0.242716 4.980390 -91.564400 5.780880 -74.829700 5.348090 -0.000007 -0.000001 -59.944600 36.293200 -19.996900 24.328600 0.000019 0.000005 8.481370 23.535900 -20.476900 22.291600 -0.000001 0.000005 4.410330 5.260430 1.155450 12.994500 -0.242716 -4.980390 88.391700 11.296800 -81.843200 -5.348130 -0.000001 -0.000004 -60.855800 34.729100 -13.847400 -24.328900 0.000322 -0.000009 1.712740 4.675180 -20.157600 -22.291500 -0.000108 -0.000004 11.100200 5.368460 -1.938950 -2.192480 -6.469440 -0.000000 -175.160000 -14.459600 3.077110 39.081100 -0.000007 -0.000012 -0.178155 0.307390 30.095700 40.985400 -0.000006 -0.000013 0.770376 4.159960 -72.753600 11.754300 -0.000000 0.000003 -0.000249 -0.002226 -16.661000 -2.192510 6.469440 -0.000001 171.555000 20.171500 -176.127000 -39.081100 -0.002282 -0.040193 -0.236421 0.422164 29.590200 -40.985400 0.000008 0.000006 2.246680 14.939900 -72.346700 -11.754300 -0.000006 -0.000006 -0.001759 -0.025658 -17.616400
0.000000 0.000000 0.000000 0.000000 0.000000 -0.000000 1.024350 90.556900 2.909060 89.741500 -5.186340 10.062000 15.735700 0.000005 -0.000001 86.644600 82.333100 -86.958000 8.984550 -0.406207 -0.000000 7.539700 -0.893377 -0.567244 16.377300 -0.000001 -0.000001 9.148830 -4.449920 2.455420 6.456720 -0.000001 -0.000000 2.484730 -4.350400 2.898580 12.994200 -0.242716 4.980390 -91.570700 5.802350 -74.824300 5.348090 -0.000007 -0.000001 -58.663100 33.599500 -21.468900 24.328600 0.000019 0.000005 8.963040 24.021300 -21.178900 22.291600 -0.000001 0.000005 2.119270 5.259690 1.175520 12.994500 -0.242716 -4.980390 88.379900 11.126200 -81.661700 -5.348130 -0.000001 -0.000004 -59.298300 33.505400 -15.279700 -24.328900 0.000322 -0.000009 2.027430 5.182890 -21.409100 -22.291500 -0.000108 -0.000004 10.831300 5.364220 -1.808510 -2.192480 -6.469440 -0.000000 -175.221000 -14.342100 2.880540 39.081100 -0.000007 -0.000012 -0.179738 0.309678 30.131400 40.985400 -0.000006 -0.000013 0.796834 4.201960 -72.656100 11.754300 -0.000000 0.000003 -0.000249 -0.002223 -16.660900 -2.192510 6.469440 -0.000001 171.560000 20.280600 -176.241000 -39.081100 -0.002282 -0.040193 -0.241484 0.431400 29.572000 -40.985400 0.000008 0.000006 2.080370 14.920100 -72.205400 -11.754300 -0.000006 -0.000006 -0.002071 -0.029597 -17.776600
0.000000 0.000000 0.000000 0.000000 0.000000 -0.000000 1.037620 90.570200 2.765780 89.754700 -5.085120 10.177600 15.735700 0.000005 -0.000001 86.448800 82.425100 -86.787300 8.984550 -0.406207 -0.000000 7.352680 -0.933653 -0.616185 16.377300 -0.000001 -0.000001 10.218800 -4.438520 2.355160 6.456720 -0.000001 -0.000000 3.787280 -4.329060 2.720680 12.994200 -0.242716 4.980390 -91.554700 5.748690 -74.838700 5.348090 -0.000007 -0.000001 -56.455600 30.564700 -23.909500 24.328600 0.000019 0.000005 9.707560 24.610700 -22.331700 22.291600 -0.000001 0.000005 -0.539197 5.249150 1.455600 12.994500 -0.242716 -4.980390 88.369200 10.906400 -81.442600 -5.348130 -0.000001 -0.000004 -57.031800 31.816200 -17.776900 -24.328900 0.000322 -0.000009 2.034140 4.899090 -22.592600 -22.291500 -0.000108 -0.000004 10.397200 5.363240 -1.778440 -2.192480 -6.469440 -0.000000 -175.223000 -14.358800 2.869960 39.081100 -0.000007 -0.000012 -0.175118 0.301406 30.157000 40.985400 -0.000006 -0.000013 0.853104 4.312330 -72.562200 11.754300 -0.000000 0.000003 -0.000258 -0.002292 -16.663400 -2.192510 6.469440 -0.000001 171.505000 20.380700 -176.216000 -39.081100 -0.002282 -0.040193 -0.243114 0.433894 29.593500 -40.985400 0.000008 0.000006 2.094280 14.956700 -72.123100 -11.754300 -0.000006 -0.000006 -0.002050 -0.029346 -17.766400
0.000000 0.000000 0.000000 0.000000 0.000000 -0.000000 1.051680 90.570900 2.588630 89.781600 -5.028610 10.324600 15.735700 0.000005 -0.000001 86.267300 82.570400 -86.613200 8.984550 -0.406207 -0.000000 7.059520 -0.961858 -0.631780 16.377300 -0.000001 -0.000001 11.793200 -4.440450 2.292760 6.456720 -0.000001 -0.000000 5.385650 -4.379130 2.218170 12.994200 -0.242716 4.980390 -91.505500 5.591050 -74.903100 5.348090 -0.000007 -0.000001 -53.866000 26.907300 -27.059800 24.328600 0.000019 0.000005 10.533100 24.942600 -23.793200 22.291600 -0.000001 0.000005 -2.224100 5.245730 1.545530 12.994500 -0.242716 -4.980390 88.391800 10.508800 -81.248700 -5.348130 -0.000001 -0.000004 -54.357300 29.283700 -21.215100 -24.328900 0.000322 -0.000009 2.156840 4.912060 -23.751900 -22.291500 -0.000108 -0.000004 9.861800 5.358960 -1.647960 -2.192480 -6.469440 -0.000000 -175.222000 -14.407200 2.830760 39.081100 -0.000007 -0.000012 -0.175166 0.300229 30.261300 40.985400 -0.000006 -0.000013 0.912326 4.425680 -72.484100 11.754300 -0.000000 0.000003 -0.000257 -0.002287 -16.663200 -2.192510 6.469440 -0.000001 171.460000 20.406400 -176.256000 -39.081100 -0.002282 -0.040193 -0.245291 0.435453 29.721800 -40.985400 0.000008 0.000006 2.116170 14.934700 -72.065200 -11.754300 -0.000006 -0.000006 -0.001960 -0.028216 -17.720500
0.000000 0.000000 0.000000 0.000000 0.000000 -0.000000 1.064310 90.567700 2.440300 89.809500 -5.087560 10.731500 15.735700 0.000005 -0.000001 86.219200 82.690500 -86.552400 8.984550 -0.406207 -0.000000 6.819170 -0.958052 -0.608525 16.377300 -0.000001 -0.000001 13.790900 -4.417540 2.190840 6.456720 -0.000001 -0.000000 7.384100 -4.422590 1.518320 12.994200 -0.242716 4.980390 -91.389000 5.222620 -75.084000 5.348090 -0.000007 -0.000001 -51.466400 22.554200 -30.372400 24.328600 0.000019 0.000005 11.326600 24.491000 -25.788900 22.291600 -0.000001 0.000005 -1.618100 5.241750 1.649710 12.994500 -0.242716 -4.980390 88.458300 9.868130 -81.075200 -5.348130 -0.000001 -0.000004 -51.676000 25.836600 -25.194000 -24.328900 0.000322 -0.000009 2.715460 5.729680 -25.419800 -22.291500 -0.000108 -0.000004 9.779950 5.343200 -1.174240 -2.192480 -6.469440 -0.000000 -175.141000 -14.512000 3.115710 39.081100 -0.000007 -0.000012 -0.172275 0.294339 30.340500 40.985400 -0.000006 -0.000013 0.942884 4.460970 -72.427600 11.754300 -0.000000 0.000003 -0.000242 -0.002175 -16.659100 -2.192510 6.469440 -0.000001 171.342000 20.291400 -176.014000 -39.081100 -0.002282 -0.040193 -0.245586 0.433822 29.843700 -40.985400 0.000008 0.000006 2.142810 14.920200 -72.025100 -11.754300 -0.000006 -0.000006 -0.001752 -0.025562 -17.612500
